<svg xmlns="http://www.w3.org/2000/svg" viewBox="0 0 1200 630" width="1200" height="630">
  <defs>
    <linearGradient id="bg" x1="0" y1="0" x2="1" y2="1">
      <stop offset="0" stop-color="#181818"/>
      <stop offset="1" stop-color="#1f1f1f"/>
    </linearGradient>
  </defs>
  <rect width="1200" height="630" fill="url(#bg)"/>
  <g fill="none" stroke="#FF5722" stroke-opacity="0.08" stroke-width="1">
    <path d="M0 80 H1200 M0 160 H1200 M0 240 H1200 M0 320 H1200 M0 400 H1200 M0 480 H1200 M0 560 H1200"/>
    <path d="M80 0 V630 M160 0 V630 M240 0 V630 M320 0 V630 M400 0 V630 M480 0 V630 M560 0 V630 M640 0 V630 M720 0 V630 M800 0 V630 M880 0 V630 M960 0 V630 M1040 0 V630 M1120 0 V630"/>
  </g>
  <text x="600" y="280" text-anchor="middle" font-family="ui-monospace,Menlo,monospace" font-size="84" font-weight="700" fill="#FF5722">TamsHub ClaudProx</text>
  <text x="600" y="350" text-anchor="middle" font-family="ui-sans-serif,system-ui" font-size="32" fill="#94a3b8">Akses semua model Claude. Murah, cepat, streaming.</text>
  <text x="600" y="420" text-anchor="middle" font-family="ui-monospace,Menlo,monospace" font-size="22" fill="#673AB7">claudprox.tams.codes</text>
</svg>
